<svg xmlns="http://www.w3.org/2000/svg" viewBox="0 0 441.32 320.42"><defs><style>.a{fill:#c8c8c8;}.b{fill:#4b4b4b;}.c{fill:#f0d9b5;}.d{fill:#b58863;}.e{fill:#ac7548;}</style></defs><rect class="a" x="92.42" width="190" height="190"/><rect class="b" x="92.42" width="23.75" height="23.75"/><rect class="b" x="187.42" width="23.75" height="23.75"/><rect class="b" x="139.92" width="23.75" height="23.75"/><rect class="b" x="258.67" y="23.75" width="23.75" height="23.75"/><rect class="b" x="234.92" width="23.75" height="23.75"/><rect class="b" x="211.17" y="23.75" width="23.75" height="23.75"/><rect class="b" x="163.67" y="23.75" width="23.75" height="23.75"/><rect class="b" x="116.17" y="23.75" width="23.75" height="23.75"/><rect class="b" x="92.42" y="47.5" width="23.75" height="23.75"/><rect class="b" x="116.17" y="71.25" width="23.75" height="23.75"/><rect class="b" x="92.42" y="95" width="23.75" height="23.75"/><rect class="b" x="116.17" y="118.75" width="23.75" height="23.75"/><rect class="b" x="92.42" y="142.5" width="23.75" height="23.75"/><rect class="b" x="116.17" y="166.25" width="23.75" height="23.75"/><rect class="b" x="139.92" y="142.5" width="23.75" height="23.75"/><rect class="b" x="139.92" y="95" width="23.75" height="23.75"/><rect class="b" x="139.92" y="47.5" width="23.75" height="23.75"/><rect class="c" x="147.85" y="42.66" width="200" height="200"/><rect class="d" x="272.85" y="42.66" width="25" height="25"/><rect class="d" x="172.85" y="42.66" width="25" height="25"/><rect class="d" x="222.85" y="42.66" width="25" height="25"/><rect class="d" x="322.85" y="42.66" width="25" height="25"/><rect class="d" x="147.85" y="67.66" width="25" height="25"/><rect class="d" x="197.85" y="67.66" width="25" height="25"/><rect class="d" x="172.85" y="92.66" width="25" height="25"/><rect class="d" x="222.85" y="92.66" width="25" height="25"/><rect class="d" x="247.85" y="67.66" width="25" height="25"/><rect class="d" x="197.85" y="117.66" width="25" height="25"/><rect class="d" x="247.85" y="117.66" width="25" height="25"/><rect class="d" x="272.85" y="92.66" width="25" height="25"/><rect class="d" x="297.85" y="67.66" width="25" height="25"/><rect class="d" x="322.85" y="92.66" width="25" height="25"/><rect class="d" x="297.85" y="117.66" width="25" height="25"/><rect class="d" x="272.85" y="142.66" width="25" height="25"/><rect class="d" x="322.85" y="142.66" width="25" height="25"/><rect class="d" x="297.85" y="167.66" width="25" height="25"/><rect class="d" x="322.85" y="192.66" width="25" height="25"/><rect class="d" x="297.85" y="217.66" width="25" height="25"/><rect class="d" x="272.85" y="192.66" width="25" height="25"/><rect class="d" x="247.85" y="217.66" width="25" height="25"/><rect class="d" x="197.85" y="217.66" width="25" height="25"/><rect class="d" x="147.85" y="217.66" width="25" height="25"/><rect class="d" x="247.85" y="167.66" width="25" height="25"/><rect class="d" x="222.85" y="142.66" width="25" height="25"/><rect class="d" x="172.85" y="142.66" width="25" height="25"/><rect class="d" x="147.85" y="117.66" width="25" height="25"/><rect class="d" x="147.85" y="167.66" width="25" height="25"/><rect class="d" x="172.85" y="192.66" width="25" height="25"/><rect class="d" x="222.85" y="192.66" width="25" height="25"/><rect class="d" x="197.85" y="167.66" width="25" height="25"/><path class="e" d="M-138.71,207.36a14.84,14.84,0,0,1-6.37,1.28c-6.7,0-11-4.54-11-11.32s4.67-11.77,11.92-11.77a13.5,13.5,0,0,1,5.59,1.14l-.92,3.12a9.32,9.32,0,0,0-4.67-1.06c-5.09,0-7.84,3.76-7.84,8.39,0,5.13,3.3,8.29,7.7,8.29a11.36,11.36,0,0,0,4.95-1.1Z" transform="translate(156.13 102.66)"/><path class="e" d="M-134,175.65h4v13.84h.09a7.38,7.38,0,0,1,2.89-2.84,8.26,8.26,0,0,1,4.12-1.15c3,0,7.75,1.83,7.75,9.49v13.19h-4V195.44c0-3.57-1.33-6.59-5.14-6.59a5.79,5.79,0,0,0-5.41,4,4.85,4.85,0,0,0-.27,1.92v13.38h-4Z" transform="translate(156.13 102.66)"/><path class="e" d="M-106.3,197.83c.09,5.45,3.58,7.7,7.61,7.7a14.63,14.63,0,0,0,6.15-1.15l.69,2.89a18.11,18.11,0,0,1-7.39,1.37c-6.83,0-10.91-4.49-10.91-11.18s3.94-12,10.41-12c7.24,0,9.17,6.37,9.17,10.45a14.54,14.54,0,0,1-.14,1.88Zm11.83-2.89c0-2.57-1-6.55-5.59-6.55-4.08,0-5.87,3.75-6.19,6.55Z" transform="translate(156.13 102.66)"/><path class="e" d="M-86.13,204.06a10.62,10.62,0,0,0,5.32,1.6c2.94,0,4.31-1.46,4.31-3.3s-1.14-3-4.12-4.07c-4-1.43-5.87-3.62-5.87-6.28,0-3.58,2.89-6.51,7.66-6.51a11,11,0,0,1,5.45,1.38l-1,2.93a8.62,8.62,0,0,0-4.54-1.28c-2.38,0-3.71,1.37-3.71,3,0,1.83,1.33,2.66,4.22,3.76,3.85,1.46,5.82,3.39,5.82,6.69,0,3.89-3,6.64-8.3,6.64a12.68,12.68,0,0,1-6.23-1.51Z" transform="translate(156.13 102.66)"/><path class="e" d="M-68,204.06a10.56,10.56,0,0,0,5.32,1.6c2.93,0,4.31-1.46,4.31-3.3s-1.15-3-4.13-4.07c-4-1.43-5.87-3.62-5.87-6.28,0-3.58,2.89-6.51,7.66-6.51a11,11,0,0,1,5.46,1.38l-1,2.93a8.65,8.65,0,0,0-4.54-1.28c-2.39,0-3.71,1.37-3.71,3,0,1.83,1.32,2.66,4.21,3.76,3.86,1.46,5.83,3.39,5.83,6.69,0,3.89-3,6.64-8.3,6.64A12.75,12.75,0,0,1-69,207.13Z" transform="translate(156.13 102.66)"/><path class="e" d="M-39.91,194.3v3H-51.24v-3Z" transform="translate(156.13 102.66)"/><path class="e" d="M-30.7,179.77a2.38,2.38,0,0,1-2.56,2.48,2.39,2.39,0,0,1-2.43-2.48,2.45,2.45,0,0,1,2.52-2.52A2.39,2.39,0,0,1-30.7,179.77Zm-4.49,28.41V186h4v22.18Z" transform="translate(156.13 102.66)"/><path class="e" d="M-24.46,192c0-2.29-.05-4.17-.18-6h3.53l.18,3.58h.14a7.64,7.64,0,0,1,7-4.08A6.56,6.56,0,0,1-7.54,190h.09A9.15,9.15,0,0,1-5,187.06a7.55,7.55,0,0,1,4.9-1.56c2.94,0,7.29,1.92,7.29,9.62v13.06H3.28V195.63c0-4.26-1.56-6.83-4.82-6.83a5.21,5.21,0,0,0-4.76,3.67,6.42,6.42,0,0,0-.32,2v13.7h-3.95V194.89c0-3.52-1.56-6.09-4.63-6.09a5.52,5.52,0,0,0-5,4,5.58,5.58,0,0,0-.32,2v13.38h-3.94Z" transform="translate(156.13 102.66)"/><path class="e" d="M26.06,208.18l-.32-2.79h-.13a8.29,8.29,0,0,1-6.79,3.3c-4.49,0-6.79-3.16-6.79-6.37,0-5.36,4.77-8.3,13.35-8.25v-.46c0-1.83-.51-5.13-5.05-5.13a11,11,0,0,0-5.77,1.65l-.92-2.66a13.77,13.77,0,0,1,7.29-2c6.78,0,8.44,4.63,8.44,9.07v8.3a31.74,31.74,0,0,0,.36,5.31Zm-.59-11.32c-4.4-.09-9.4.69-9.4,5a3.57,3.57,0,0,0,3.8,3.85A5.52,5.52,0,0,0,25.24,202a4.18,4.18,0,0,0,.23-1.29Z" transform="translate(156.13 102.66)"/><path class="e" d="M55,186c-.09,1.61-.18,3.4-.18,6.1V205c0,5.09-1,8.21-3.16,10.13s-5.28,2.66-8.07,2.66a14.38,14.38,0,0,1-7.39-1.83l1-3.07a12.59,12.59,0,0,0,6.51,1.74c4.13,0,7.16-2.16,7.16-7.75v-2.47h-.09a7.94,7.94,0,0,1-7.07,3.71c-5.5,0-9.44-4.67-9.44-10.81,0-7.52,4.9-11.78,10-11.78a7.39,7.39,0,0,1,6.93,3.85h.09l.18-3.35Zm-4.17,8.76a5.59,5.59,0,0,0-.23-1.84A5.81,5.81,0,0,0,45,188.66c-3.85,0-6.6,3.26-6.6,8.39,0,4.35,2.2,8,6.56,8a5.9,5.9,0,0,0,5.59-4.12,7,7,0,0,0,.32-2.16Z" transform="translate(156.13 102.66)"/><path class="e" d="M63.75,197.83c.09,5.45,3.58,7.7,7.61,7.7a14.58,14.58,0,0,0,6.14-1.15l.69,2.89a18,18,0,0,1-7.38,1.37c-6.83,0-10.91-4.49-10.91-11.18s3.94-12,10.41-12c7.24,0,9.17,6.37,9.17,10.45a16.61,16.61,0,0,1-.14,1.88Zm11.83-2.89c0-2.57-1.06-6.55-5.6-6.55-4.08,0-5.86,3.75-6.19,6.55Z" transform="translate(156.13 102.66)"/><path class="e" d="M95.11,194.3v3H83.78v-3Z" transform="translate(156.13 102.66)"/><path class="e" d="M119.59,186c-.09,1.61-.18,3.4-.18,6.1V205c0,5.09-1,8.21-3.17,10.13s-5.27,2.66-8.07,2.66a14.34,14.34,0,0,1-7.38-1.83l1-3.07a12.59,12.59,0,0,0,6.51,1.74c4.13,0,7.15-2.16,7.15-7.75v-2.47h-.09a7.91,7.91,0,0,1-7.06,3.71c-5.5,0-9.44-4.67-9.44-10.81,0-7.52,4.9-11.78,10-11.78a7.41,7.41,0,0,1,6.93,3.85h.09l.18-3.35Zm-4.17,8.76a5.9,5.9,0,0,0-5.87-6.1c-3.85,0-6.6,3.26-6.6,8.39,0,4.35,2.2,8,6.55,8a5.9,5.9,0,0,0,5.6-4.12,7,7,0,0,0,.32-2.16Z" transform="translate(156.13 102.66)"/><path class="e" d="M128.35,197.83c.09,5.45,3.57,7.7,7.61,7.7a14.58,14.58,0,0,0,6.14-1.15l.69,2.89a18,18,0,0,1-7.38,1.37c-6.83,0-10.92-4.49-10.92-11.18s4-12,10.41-12c7.25,0,9.17,6.37,9.17,10.45a17.11,17.11,0,0,1-.13,1.88Zm11.83-2.89c0-2.57-1.06-6.55-5.6-6.55-4.08,0-5.87,3.75-6.19,6.55Z" transform="translate(156.13 102.66)"/><path class="e" d="M149.07,192c0-2.29,0-4.17-.18-6h3.57l.23,3.67h.09a8.16,8.16,0,0,1,7.34-4.17c3.07,0,7.84,1.83,7.84,9.44v13.24h-4V195.4c0-3.58-1.32-6.55-5.13-6.55a5.72,5.72,0,0,0-5.41,4.12,5.86,5.86,0,0,0-.28,1.88v13.33h-4Z" transform="translate(156.13 102.66)"/><path class="e" d="M176.76,197.83c.09,5.45,3.58,7.7,7.61,7.7a14.66,14.66,0,0,0,6.15-1.15l.68,2.89a18,18,0,0,1-7.38,1.37c-6.83,0-10.91-4.49-10.91-11.18s3.94-12,10.41-12c7.24,0,9.17,6.37,9.17,10.45a14.54,14.54,0,0,1-.14,1.88Zm11.83-2.89c0-2.57-1.05-6.55-5.59-6.55-4.08,0-5.87,3.75-6.19,6.55Z" transform="translate(156.13 102.66)"/><path class="e" d="M197.48,192.92c0-2.61,0-4.85-.18-6.92h3.53l.14,4.36h.18a6.66,6.66,0,0,1,6.15-4.86,4.39,4.39,0,0,1,1.14.14v3.8a6.08,6.08,0,0,0-1.37-.14c-2.85,0-4.86,2.16-5.41,5.18a10.47,10.47,0,0,0-.19,1.88v11.82h-4Z" transform="translate(156.13 102.66)"/><path class="e" d="M224.53,208.18l-.32-2.79h-.13a8.29,8.29,0,0,1-6.79,3.3c-4.49,0-6.79-3.16-6.79-6.37,0-5.36,4.77-8.3,13.35-8.25v-.46c0-1.83-.51-5.13-5-5.13a11,11,0,0,0-5.77,1.65l-.92-2.66a13.77,13.77,0,0,1,7.29-2c6.78,0,8.44,4.63,8.44,9.07v8.3a31.74,31.74,0,0,0,.36,5.31Zm-.59-11.32c-4.4-.09-9.4.69-9.4,5a3.57,3.57,0,0,0,3.8,3.85,5.52,5.52,0,0,0,5.37-3.71,4.18,4.18,0,0,0,.23-1.29Z" transform="translate(156.13 102.66)"/><path class="e" d="M239,179.64V186h5.78v3.08H239V201c0,2.75.78,4.31,3,4.31a9.45,9.45,0,0,0,2.34-.27l.18,3a9.92,9.92,0,0,1-3.58.55,5.61,5.61,0,0,1-4.35-1.69c-1.15-1.2-1.56-3.17-1.56-5.78V189.08h-3.44V186h3.44v-5.31Z" transform="translate(156.13 102.66)"/><path class="e" d="M269.14,196.91c0,8.2-5.68,11.78-11.05,11.78-6,0-10.63-4.4-10.63-11.41,0-7.43,4.86-11.78,11-11.78C264.83,185.5,269.14,190.13,269.14,196.91Zm-17.6.23c0,4.86,2.79,8.52,6.74,8.52S265,202,265,197.05c0-3.76-1.88-8.52-6.65-8.52S251.54,192.92,251.54,197.14Z" transform="translate(156.13 102.66)"/><path class="e" d="M274.23,192.92c0-2.61,0-4.85-.18-6.92h3.53l.14,4.36h.18A6.66,6.66,0,0,1,284,185.5a4.47,4.47,0,0,1,1.15.14v3.8a6.18,6.18,0,0,0-1.38-.14c-2.84,0-4.86,2.16-5.41,5.18a11.54,11.54,0,0,0-.18,1.88v11.82h-4Z" transform="translate(156.13 102.66)"/></svg>